inDegrees=no
num_controls=7
num_derivatives=13
num_iterations=223
num_multipliers=7
num_parameters=0
num_slacks=7
num_states=26
objective=1.453843
objective_accelerations=0.032115
objective_balance=0.005977
objective_effort=0.023643
objective_height=0.385574
objective_ligament=1.006534
solver_duration=2970.028898
status=Solve_Succeeded
success=true
DataType=double
version=3
OpenSimVersion=4.5
endheader
time	/jointset/ground_pelvis/pelvis_tilt/value	/jointset/ground_pelvis/pelvis_tx/value	/jointset/ground_pelvis/pelvis_ty/value	/jointset/hip_l/hip_flexion_l/value	/jointset/hip_l/hip_adduction_l/value	/jointset/hip_l/hip_rotation_l/value	/jointset/back/lumbar_extension/value	/jointset/patellofemoral_l/patellar_flexion_l/value	/jointset/knee_l/knee_flexion_l/value	/jointset/knee_l/knee_adduction_l/value	/jointset/knee_l/knee_rotation_l/value	/jointset/ankle_l/ankle_angle_l/value	/jointset/subtalar_l/subtalar_angle_l/value	/jointset/ground_pelvis/pelvis_tilt/speed	/jointset/ground_pelvis/pelvis_tx/speed	/jointset/ground_pelvis/pelvis_ty/speed	/jointset/hip_l/hip_flexion_l/speed	/jointset/hip_l/hip_adduction_l/speed	/jointset/hip_l/hip_rotation_l/speed	/jointset/back/lumbar_extension/speed	/jointset/patellofemoral_l/patellar_flexion_l/speed	/jointset/knee_l/knee_flexion_l/speed	/jointset/knee_l/knee_adduction_l/speed	/jointset/knee_l/knee_rotation_l/speed	/jointset/ankle_l/ankle_angle_l/speed	/jointset/subtalar_l/subtalar_angle_l/speed	/forceset/tau_hip_flexion_l	/forceset/tau_hip_adduction_l	/forceset/tau_hip_rotation_l	/forceset/tau_knee_flexion_l	/forceset/tau_ankle_angle_l	/forceset/tau_subtalar_angle_l	/forceset/tau_lumbar_extension	lambda_cid13_p0	lambda_cid13_p1	lambda_cid13_p2	lambda_cid13_p3	lambda_cid13_p4	lambda_cid13_p5	lambda_cid14_p0	/jointset/ground_pelvis/pelvis_tilt/accel	/jointset/ground_pelvis/pelvis_tx/accel	/jointset/ground_pelvis/pelvis_ty/accel	/jointset/hip_l/hip_flexion_l/accel	/jointset/hip_l/hip_adduction_l/accel	/jointset/hip_l/hip_rotation_l/accel	/jointset/back/lumbar_extension/accel	/jointset/patellofemoral_l/patellar_flexion_l/accel	/jointset/knee_l/knee_flexion_l/accel	/jointset/knee_l/knee_adduction_l/accel	/jointset/knee_l/knee_rotation_l/accel	/jointset/ankle_l/ankle_angle_l/accel	/jointset/subtalar_l/subtalar_angle_l/accel	gamma_cid13_p0	gamma_cid13_p1	gamma_cid13_p2	gamma_cid13_p3	gamma_cid13_p4	gamma_cid13_p5	gamma_cid14_p0
1	-0.6941973056092197	-0.1479579308386406	0.6890145764868454	1.620009817514862	-0.42558494466818	-0.2505874929656032	-0.2617929164150758	0.782622739528375	0.7826227395284302	-0.103966684140608	-0.174527875107424	-0.08726633412791789	-0.1178585186162667	-0.02416056061695202	0.003537137599352729	0.002186403784608015	0.008726350170008864	0.001039626710783182	-0.005253294728584587	-5.791245207794967e-05	-0.01409782331399554	-0.01409782331399588	-0.002001836713748445	-8.955377420644862e-06	-4.045799739130939e-05	0.001101003641685254	-0.3911969250912122	0.07605606873085827	-0.008875626242046533	-0.1166875271784618	0.08848651713187407	0.07395490094242309	0.3178303238486433	-10.18434430404694	-30.13369850217095	4.237817069040337	1.517803798594041	-611.1586863599517	-42.16907634590073	-26.63838685074879	2.614085535751582	0.564028246798154	1.120285654238175	-5.495548036772372	0.4582611851423884	-1.274683039980428	-0.03015860619006192	-2.758736938401451	-2.758736938401487	0.2669054921876859	-0.001225334420056683	0.008224367927750395	0.4853662967793977	-3.06419230420941e-09	-1.210313102875208e-09	4.961032264434148e-09	4.156313926811487e-09	-2.744231529974893e-09	8.358313979465597e-10	-9.178302844883496e-10
1.01	-0.6943092083317639	-0.1478943501740474	0.6890923428966385	1.619823594639366	-0.4255511239286613	-0.250704094470275	-0.2617937435106718	0.7823439881469619	0.7823439881470077	-0.1039720531329357	-0.1745279413330371	-0.08726610739516456	-0.1178226123686324	0.001788382676824803	0.009189404359524225	0.01336763757687471	-0.0459806270410122	0.005727526742896203	-0.01806319028984343	-9.916115305545019e-05	-0.04163772866887817	-0.04163772866887441	0.00093763557211832	-4.204767658338716e-06	0.0001066249176897576	0.006093087604454212	-0.3912107546740128	0.07599963551969779	-0.008882492799158179	-0.1167619086918086	0.08883769601461562	0.07397717167935625	0.317891627065166	-10.06891351691299	-30.16855713017981	4.249057575580476	1.285725985270767	-611.1960186955766	-42.19394012725008	-26.65153181528374	2.586553148238196	0.5673875630284653	1.117155326367075	-5.459728474564627	0.4745042903816807	-1.283572981531893	0.01014382506144944	-2.749408027646814	-2.749408027646153	0.308907668253154	0.00134127132061255	0.02107319104257404	0.5080547011836661	-4.721109390591636e-09	-4.116503702559006e-09	1.453628528938121e-08	1.609225824609182e-09	-4.114541298179698e-09	6.201857863116562e-09	-3.283730397075728e-09
1.02	-0.6941613707369599	-0.147773934507372	0.6892819442612834	1.6190900108095	-0.4254703342131932	-0.2509486809640311	-0.2617947327278528	0.7817902795732766	0.7817902795733137	-0.1039477394881119	-0.1745279568500224	-0.08726378524557186	-0.1177364002303387	0.02778750285250118	0.01490413801577557	0.02455339475498294	-0.1007458407039374	0.01043342190044797	-0.03085029254443435	-9.033676951185612e-05	-0.06908926176836667	-0.06908926176835793	0.003934690716665631	1.186347953636127e-06	0.0003786253425406165	0.01116218177354369	-0.3912245842568176	0.07594320230853123	-0.008889359356250697	-0.1168362902051578	0.08918887489735448	0.07399944241628172	0.3179529302816876	-9.958319230981029	-30.20290346984618	4.260598466509292	1.050667431802154	-611.3273764319093	-42.22697429019914	-26.67755696280057	2.624120912131577	0.576521626014007	1.121190331406443	-5.507195327153119	0.4618602102301613	-1.270124378646861	-0.02014398928582989	-2.741062487322667	-2.741062487322526	0.2784220639238322	-0.001097233250110608	0.03320786988151134	0.5007683380434322	-7.06957128382452e-09	-6.993587431614092e-09	2.479907077470729e-08	2.230794632490998e-10	-6.03700750760604e-09	1.179594687573326e-08	-5.78388740864025e-09
1.03	-0.6937534129211033	-0.1475959919392308	0.689583389252548	1.61780862837489	-0.425342430679975	-0.2513209427519922	-0.2617954880581861	0.7809626337516532	0.7809626337516458	-0.1038932392322065	-0.1745279369471419	-0.087258001437119	-0.1175990926974518	0.05380112607845168	0.02070162344644327	0.03573270834181335	-0.1555260447840077	0.01514769682512078	-0.04358933651527667	-6.359928395788008e-05	-0.09641074804165853	-0.09641074804165443	0.006969639205007827	1.876261005219773e-06	0.0008115286390345203	0.01631545639306268	-0.3904601997500183	0.07548368444856016	-0.008936951085071325	-0.1175645218318393	0.09052267644466085	0.07389729091062798	0.3174756757380054	-9.514992713920034	-30.25882121217266	4.295395213311879	0.5169300833304975	-611.1343198410493	-42.31169455846773	-26.7164230981903	2.589541259271888	0.5839489380289816	1.115865994160798	-5.462744515851423	0.4762707360400505	-1.273891316407795	0.01365211951791446	-2.72331684786885	-2.723316847869608	0.3166729511506455	0.0005222956776327738	0.0533404391146621	0.5250242804766707	-9.42508975671915e-09	-9.870374151785212e-09	3.506887189738419e-08	-1.151220553816667e-09	-7.965107966432604e-09	1.739236305720145e-08	-8.285414388561684e-09
